<mxfile host="app.diagrams.net" agent="Mozilla/5.0 (Windows NT 10.0; Win64; x64) AppleWebKit/537.36 (KHTML, like Gecko) Chrome/131.0.0.0 Safari/537.36" version="25.0.3" pages="2">
  <diagram name="Page-1" id="Z3wb-ij09Z1w0urkt8C2">
    <mxGraphModel dx="1312" dy="759" grid="1" gridSize="10" guides="1" tooltips="1" connect="1" arrows="1" fold="1" page="1" pageScale="1" pageWidth="850" pageHeight="1100" math="0" shadow="0">
      <root>
        <mxCell id="0" />
        <mxCell id="1" parent="0" />
        <mxCell id="oUc8GYOq-sqYR_EKmk44-3" style="edgeStyle=orthogonalEdgeStyle;rounded=0;orthogonalLoop=1;jettySize=auto;html=1;exitX=0.5;exitY=1;exitDx=0;exitDy=0;" edge="1" parent="1" source="oUc8GYOq-sqYR_EKmk44-1" target="oUc8GYOq-sqYR_EKmk44-2">
          <mxGeometry relative="1" as="geometry" />
        </mxCell>
        <mxCell id="oUc8GYOq-sqYR_EKmk44-1" value="Start" style="ellipse;whiteSpace=wrap;html=1;" vertex="1" parent="1">
          <mxGeometry x="20" y="20" width="120" height="80" as="geometry" />
        </mxCell>
        <mxCell id="oUc8GYOq-sqYR_EKmk44-5" style="edgeStyle=orthogonalEdgeStyle;rounded=0;orthogonalLoop=1;jettySize=auto;html=1;entryX=0.5;entryY=0;entryDx=0;entryDy=0;" edge="1" parent="1" source="oUc8GYOq-sqYR_EKmk44-2" target="oUc8GYOq-sqYR_EKmk44-4">
          <mxGeometry relative="1" as="geometry" />
        </mxCell>
        <mxCell id="oUc8GYOq-sqYR_EKmk44-2" value="Input search" style="shape=parallelogram;perimeter=parallelogramPerimeter;whiteSpace=wrap;html=1;fixedSize=1;" vertex="1" parent="1">
          <mxGeometry x="20" y="140" width="120" height="60" as="geometry" />
        </mxCell>
        <mxCell id="oUc8GYOq-sqYR_EKmk44-7" style="edgeStyle=orthogonalEdgeStyle;rounded=0;orthogonalLoop=1;jettySize=auto;html=1;exitX=1;exitY=0.5;exitDx=0;exitDy=0;entryX=0;entryY=0.5;entryDx=0;entryDy=0;" edge="1" parent="1" source="oUc8GYOq-sqYR_EKmk44-4" target="oUc8GYOq-sqYR_EKmk44-6">
          <mxGeometry relative="1" as="geometry" />
        </mxCell>
        <mxCell id="oUc8GYOq-sqYR_EKmk44-4" value="flag=0&lt;div&gt;index=1&lt;/div&gt;&lt;div&gt;i=0&lt;/div&gt;&lt;div&gt;array={1,2,3,4,5,6}&lt;/div&gt;" style="rounded=0;whiteSpace=wrap;html=1;" vertex="1" parent="1">
          <mxGeometry x="20" y="230" width="120" height="80" as="geometry" />
        </mxCell>
        <mxCell id="oUc8GYOq-sqYR_EKmk44-9" value="" style="edgeStyle=orthogonalEdgeStyle;rounded=0;orthogonalLoop=1;jettySize=auto;html=1;" edge="1" parent="1" source="oUc8GYOq-sqYR_EKmk44-6" target="oUc8GYOq-sqYR_EKmk44-8">
          <mxGeometry relative="1" as="geometry" />
        </mxCell>
        <mxCell id="oUc8GYOq-sqYR_EKmk44-20" style="edgeStyle=orthogonalEdgeStyle;rounded=0;orthogonalLoop=1;jettySize=auto;html=1;exitX=1;exitY=0.5;exitDx=0;exitDy=0;" edge="1" parent="1" source="oUc8GYOq-sqYR_EKmk44-6" target="oUc8GYOq-sqYR_EKmk44-19">
          <mxGeometry relative="1" as="geometry">
            <mxPoint x="800" y="270.41176470588243" as="targetPoint" />
          </mxGeometry>
        </mxCell>
        <mxCell id="oUc8GYOq-sqYR_EKmk44-6" value="i&amp;lt;array.length" style="rhombus;whiteSpace=wrap;html=1;" vertex="1" parent="1">
          <mxGeometry x="210" y="220" width="140" height="100" as="geometry" />
        </mxCell>
        <mxCell id="oUc8GYOq-sqYR_EKmk44-11" value="" style="edgeStyle=orthogonalEdgeStyle;rounded=0;orthogonalLoop=1;jettySize=auto;html=1;" edge="1" parent="1" source="oUc8GYOq-sqYR_EKmk44-8" target="oUc8GYOq-sqYR_EKmk44-10">
          <mxGeometry relative="1" as="geometry" />
        </mxCell>
        <mxCell id="oUc8GYOq-sqYR_EKmk44-31" value="" style="edgeStyle=orthogonalEdgeStyle;rounded=0;orthogonalLoop=1;jettySize=auto;html=1;" edge="1" parent="1" source="oUc8GYOq-sqYR_EKmk44-8" target="oUc8GYOq-sqYR_EKmk44-30">
          <mxGeometry relative="1" as="geometry" />
        </mxCell>
        <mxCell id="oUc8GYOq-sqYR_EKmk44-8" value="array[i]=search" style="rhombus;whiteSpace=wrap;html=1;" vertex="1" parent="1">
          <mxGeometry x="220" y="350" width="120" height="80" as="geometry" />
        </mxCell>
        <mxCell id="oUc8GYOq-sqYR_EKmk44-13" value="" style="edgeStyle=orthogonalEdgeStyle;rounded=0;orthogonalLoop=1;jettySize=auto;html=1;" edge="1" parent="1" source="oUc8GYOq-sqYR_EKmk44-10" target="oUc8GYOq-sqYR_EKmk44-12">
          <mxGeometry relative="1" as="geometry" />
        </mxCell>
        <mxCell id="oUc8GYOq-sqYR_EKmk44-10" value="flag=1&lt;div&gt;index=i&lt;/div&gt;&lt;div&gt;i=array.length&lt;/div&gt;" style="whiteSpace=wrap;html=1;" vertex="1" parent="1">
          <mxGeometry x="220" y="470" width="120" height="60" as="geometry" />
        </mxCell>
        <mxCell id="oUc8GYOq-sqYR_EKmk44-15" value="" style="edgeStyle=orthogonalEdgeStyle;rounded=0;orthogonalLoop=1;jettySize=auto;html=1;entryX=0.5;entryY=0;entryDx=0;entryDy=0;entryPerimeter=0;" edge="1" parent="1" source="oUc8GYOq-sqYR_EKmk44-12" target="oUc8GYOq-sqYR_EKmk44-16">
          <mxGeometry relative="1" as="geometry">
            <mxPoint x="280" y="730" as="targetPoint" />
          </mxGeometry>
        </mxCell>
        <mxCell id="oUc8GYOq-sqYR_EKmk44-25" value="TRUE" style="edgeLabel;html=1;align=center;verticalAlign=middle;resizable=0;points=[];" vertex="1" connectable="0" parent="oUc8GYOq-sqYR_EKmk44-15">
          <mxGeometry x="-0.4029" relative="1" as="geometry">
            <mxPoint as="offset" />
          </mxGeometry>
        </mxCell>
        <mxCell id="oUc8GYOq-sqYR_EKmk44-18" style="edgeStyle=orthogonalEdgeStyle;rounded=0;orthogonalLoop=1;jettySize=auto;html=1;exitX=1;exitY=0.5;exitDx=0;exitDy=0;entryX=0;entryY=0.5;entryDx=0;entryDy=0;" edge="1" parent="1" source="oUc8GYOq-sqYR_EKmk44-12" target="oUc8GYOq-sqYR_EKmk44-17">
          <mxGeometry relative="1" as="geometry" />
        </mxCell>
        <mxCell id="oUc8GYOq-sqYR_EKmk44-26" value="FALSE" style="edgeLabel;html=1;align=center;verticalAlign=middle;resizable=0;points=[];" vertex="1" connectable="0" parent="oUc8GYOq-sqYR_EKmk44-18">
          <mxGeometry x="-0.0337" y="3" relative="1" as="geometry">
            <mxPoint as="offset" />
          </mxGeometry>
        </mxCell>
        <mxCell id="oUc8GYOq-sqYR_EKmk44-12" value="flag=1" style="rhombus;whiteSpace=wrap;html=1;" vertex="1" parent="1">
          <mxGeometry x="240" y="560" width="80" height="80" as="geometry" />
        </mxCell>
        <mxCell id="oUc8GYOq-sqYR_EKmk44-24" style="edgeStyle=orthogonalEdgeStyle;rounded=0;orthogonalLoop=1;jettySize=auto;html=1;exitX=1;exitY=0.5;exitDx=0;exitDy=0;entryX=0;entryY=0.5;entryDx=0;entryDy=0;" edge="1" parent="1" source="oUc8GYOq-sqYR_EKmk44-16" target="oUc8GYOq-sqYR_EKmk44-19">
          <mxGeometry relative="1" as="geometry" />
        </mxCell>
        <mxCell id="oUc8GYOq-sqYR_EKmk44-16" value="print &quot;ada di Index&quot; +index" style="shape=parallelogram;perimeter=parallelogramPerimeter;whiteSpace=wrap;html=1;fixedSize=1;" vertex="1" parent="1">
          <mxGeometry x="195" y="690" width="170" height="60" as="geometry" />
        </mxCell>
        <mxCell id="oUc8GYOq-sqYR_EKmk44-29" style="edgeStyle=orthogonalEdgeStyle;rounded=0;orthogonalLoop=1;jettySize=auto;html=1;exitX=1;exitY=0.5;exitDx=0;exitDy=0;" edge="1" parent="1" source="oUc8GYOq-sqYR_EKmk44-17" target="oUc8GYOq-sqYR_EKmk44-19">
          <mxGeometry relative="1" as="geometry">
            <mxPoint x="640" y="600.3333333333335" as="targetPoint" />
          </mxGeometry>
        </mxCell>
        <mxCell id="oUc8GYOq-sqYR_EKmk44-17" value="Print &quot;Tidak ada&quot;" style="shape=parallelogram;perimeter=parallelogramPerimeter;whiteSpace=wrap;html=1;fixedSize=1;" vertex="1" parent="1">
          <mxGeometry x="380" y="570" width="120" height="60" as="geometry" />
        </mxCell>
        <mxCell id="oUc8GYOq-sqYR_EKmk44-19" value="End" style="ellipse;whiteSpace=wrap;html=1;" vertex="1" parent="1">
          <mxGeometry x="700" y="680" width="130" height="80" as="geometry" />
        </mxCell>
        <mxCell id="oUc8GYOq-sqYR_EKmk44-32" style="edgeStyle=orthogonalEdgeStyle;rounded=0;orthogonalLoop=1;jettySize=auto;html=1;entryX=0.5;entryY=0;entryDx=0;entryDy=0;" edge="1" parent="1" source="oUc8GYOq-sqYR_EKmk44-30" target="oUc8GYOq-sqYR_EKmk44-6">
          <mxGeometry relative="1" as="geometry">
            <mxPoint x="470" y="160" as="targetPoint" />
          </mxGeometry>
        </mxCell>
        <mxCell id="oUc8GYOq-sqYR_EKmk44-30" value="i++" style="whiteSpace=wrap;html=1;" vertex="1" parent="1">
          <mxGeometry x="425" y="130" width="120" height="60" as="geometry" />
        </mxCell>
      </root>
    </mxGraphModel>
  </diagram>
  <diagram id="Xm4peTevM7YwShcgZdee" name="Page-2">
    <mxGraphModel dx="1115" dy="645" grid="1" gridSize="10" guides="1" tooltips="1" connect="1" arrows="1" fold="1" page="1" pageScale="1" pageWidth="850" pageHeight="1100" math="0" shadow="0">
      <root>
        <mxCell id="0" />
        <mxCell id="1" parent="0" />
      </root>
    </mxGraphModel>
  </diagram>
</mxfile>
